<svg width="94" height="29" viewBox="0 0 94 29" fill="none" xmlns="http://www.w3.org/2000/svg">
<path d="M1.62 15V1.86H5.112L8.406 9.708H8.73L12.006 1.86H15.552V15H13.014V4.596L9.792 12.318H7.182L3.96 4.65V15H1.62ZM20.3678 15.252C19.2878 15.252 18.4238 14.976 17.7758 14.424C17.1398 13.872 16.8218 13.098 16.8218 12.102C16.8218 11.034 17.2058 10.248 17.9738 9.744C18.7538 9.228 19.7978 8.97 21.1058 8.97H23.1038V8.88C23.1038 7.764 22.5398 7.206 21.4118 7.206C21.1118 7.206 20.7518 7.212 20.3318 7.224C19.9118 7.236 19.4858 7.254 19.0538 7.278C18.6338 7.29 18.2558 7.308 17.9198 7.332V5.208C18.3278 5.172 18.8138 5.142 19.3778 5.118C19.9538 5.094 20.4818 5.082 20.9618 5.082C22.4618 5.082 23.5898 5.388 24.3458 6C25.1138 6.6 25.4978 7.578 25.4978 8.934V15H23.5178V13.128C23.0738 14.544 22.0238 15.252 20.3678 15.252ZM21.0698 13.47C21.4058 13.47 21.7238 13.41 22.0238 13.29C22.3238 13.158 22.5698 12.942 22.7618 12.642C22.9658 12.33 23.0798 11.91 23.1038 11.382V10.464H21.0698C20.4938 10.464 20.0498 10.608 19.7378 10.896C19.4378 11.172 19.2878 11.532 19.2878 11.976C19.2878 12.432 19.4378 12.798 19.7378 13.074C20.0498 13.338 20.4938 13.47 21.0698 13.47ZM27.1779 15V5.226H29.1579V8.412C29.4219 6.204 30.5859 5.1 32.6499 5.1H33.0099V7.278H32.3259C31.4739 7.278 30.8199 7.506 30.3639 7.962C29.9079 8.418 29.6799 9.066 29.6799 9.906V15H27.1779ZM33.6837 15V1.86H36.1857V9.942L39.9477 5.226H42.5577L39.2277 9.384L43.3497 15H40.5237L37.2477 10.428H36.1857V15H33.6837ZM50.5119 15.36C49.5519 15.36 48.7119 15.174 47.9919 14.802C47.2839 14.43 46.7259 13.932 46.3179 13.308C45.9219 12.672 45.7239 11.958 45.7239 11.166V10.932C45.7239 10.128 45.9339 9.408 46.3539 8.772C46.7739 8.124 47.3139 7.608 47.9739 7.224C47.8059 6.9 47.6859 6.588 47.6139 6.288C47.5539 5.976 47.5239 5.64 47.5239 5.28C47.5239 4.164 47.8779 3.288 48.5859 2.652C49.3059 2.016 50.4579 1.698 52.0419 1.698C52.4619 1.698 52.9059 1.722 53.3739 1.77C53.8419 1.806 54.2619 1.848 54.6339 1.896V3.984C54.3819 3.948 54.0759 3.918 53.7159 3.894C53.3679 3.858 53.0139 3.834 52.6539 3.822C52.3059 3.798 52.0179 3.786 51.7899 3.786C51.0339 3.786 50.5179 3.93 50.2419 4.218C49.9779 4.494 49.8459 4.884 49.8459 5.388C49.8459 5.844 49.9479 6.276 50.1519 6.684C50.3679 7.08 50.7159 7.536 51.1959 8.052L53.9319 10.986C54.1119 10.59 54.2499 10.134 54.3459 9.618C54.4539 9.09 54.5199 8.508 54.5439 7.872H52.7259V6.018H57.7119V7.872H56.7399C56.7159 8.844 56.5899 9.732 56.3619 10.536C56.1459 11.328 55.8459 12.024 55.4619 12.624L57.6759 15H54.8679L54.0759 14.172C53.0679 14.964 51.8799 15.36 50.5119 15.36ZM48.0459 10.932C48.0459 11.652 48.2739 12.228 48.7299 12.66C49.1859 13.08 49.8159 13.29 50.6199 13.29C51.3999 13.29 52.0839 13.074 52.6719 12.642L49.7199 9.456C49.4559 9.18 49.2279 8.934 49.0359 8.718C48.7479 8.97 48.5079 9.288 48.3159 9.672C48.1359 10.044 48.0459 10.464 48.0459 10.932ZM61.663 15.09V1.77H66.379C67.867 1.77 68.995 2.082 69.763 2.706C70.543 3.33 70.933 4.224 70.933 5.388V5.64C70.933 6.276 70.813 6.804 70.573 7.224C70.345 7.644 70.027 7.986 69.619 8.25C70.195 8.49 70.645 8.844 70.969 9.312C71.305 9.78 71.473 10.392 71.473 11.148V11.4C71.473 12.576 71.083 13.488 70.303 14.136C69.535 14.772 68.407 15.09 66.919 15.09H61.663ZM66.613 3.822H64.165V7.386H66.613C67.225 7.386 67.675 7.224 67.963 6.9C68.251 6.576 68.395 6.144 68.395 5.604C68.395 5.064 68.251 4.632 67.963 4.308C67.675 3.984 67.225 3.822 66.613 3.822ZM67.099 9.366H64.165V13.038H67.099C67.699 13.038 68.155 12.876 68.467 12.552C68.779 12.228 68.935 11.772 68.935 11.184C68.935 10.608 68.779 10.164 68.467 9.852C68.155 9.528 67.699 9.366 67.099 9.366ZM77.1612 15.342C76.3212 15.342 75.5832 15.198 74.9472 14.91C74.3232 14.622 73.8012 14.238 73.3812 13.758C72.9732 13.266 72.6612 12.72 72.4452 12.12C72.2412 11.52 72.1392 10.908 72.1392 10.284V9.942C72.1392 9.294 72.2412 8.67 72.4452 8.07C72.6612 7.47 72.9732 6.93 73.3812 6.45C73.8012 5.97 74.3172 5.592 74.9292 5.316C75.5412 5.028 76.2492 4.884 77.0532 4.884C78.1092 4.884 78.9912 5.118 79.6992 5.586C80.4072 6.042 80.9412 6.648 81.3012 7.404C81.6732 8.148 81.8592 8.952 81.8592 9.816V10.716H74.5152C74.5992 11.484 74.8512 12.102 75.2712 12.57C75.7032 13.038 76.3332 13.272 77.1612 13.272C77.7612 13.272 78.2532 13.152 78.6372 12.912C79.0332 12.66 79.2852 12.354 79.3932 11.994H81.6972C81.4812 13.002 80.9712 13.812 80.1672 14.424C79.3632 15.036 78.3612 15.342 77.1612 15.342ZM77.0532 6.954C76.3452 6.954 75.7812 7.152 75.3612 7.548C74.9412 7.944 74.6712 8.49 74.5512 9.186H79.4652C79.3692 8.49 79.1172 7.944 78.7092 7.548C78.3132 7.152 77.7612 6.954 77.0532 6.954ZM82.9493 15V5.226H84.9293V7.638C85.3493 5.826 86.4653 4.92 88.2773 4.92H88.3853C89.5493 4.92 90.4313 5.298 91.0313 6.054C91.6313 6.81 91.9313 7.926 91.9313 9.402V15H89.4293V9.186C89.4293 8.586 89.2553 8.1 88.9073 7.728C88.5593 7.356 88.0913 7.17 87.5033 7.17C86.8913 7.17 86.3933 7.362 86.0093 7.746C85.6373 8.13 85.4513 8.634 85.4513 9.258V15H82.9493Z" fill="#131516"/>
<line x1="2" y1="24.2031" x2="50" y2="24.2031" stroke="#F11158"/>
<path d="M55.53 26.9662C55.75 26.9596 55.9067 26.9162 56 26.8362C56.1 26.7496 56.1633 26.6262 56.19 26.4662C56.2167 26.3062 56.23 26.1029 56.23 25.8562V21.6962C56.23 21.3896 56.24 21.1296 56.26 20.9162C56.1467 20.9229 56.0233 20.9296 55.89 20.9362C55.7567 20.9429 55.6367 20.9496 55.53 20.9562V20.4062C56.3167 20.3996 57.13 20.3929 57.97 20.3862C58.9033 20.3862 59.6267 20.5562 60.14 20.8962C60.66 21.2296 60.9267 21.7429 60.94 22.4362C60.9467 22.6962 60.9 22.9662 60.8 23.2462C60.7 23.5196 60.53 23.7762 60.29 24.0162C60.05 24.2496 59.7233 24.4396 59.31 24.5862C58.8967 24.7329 58.3833 24.8062 57.77 24.8062C57.7033 24.8129 57.6267 24.8162 57.54 24.8162C57.46 24.8096 57.3767 24.8062 57.29 24.8062V26.0662C57.29 26.4262 57.28 26.7029 57.26 26.8962C57.4 26.8829 57.5533 26.8729 57.72 26.8662C57.8867 26.8596 58.0333 26.8529 58.16 26.8462V27.4062H55.53V26.9662ZM57.29 24.2762C57.3967 24.2896 57.4933 24.2996 57.58 24.3062C57.6667 24.3062 57.7667 24.3062 57.88 24.3062C58.44 24.3062 58.8967 24.1529 59.25 23.8462C59.6033 23.5329 59.78 23.0962 59.78 22.5362C59.78 22.1029 59.6933 21.7662 59.52 21.5263C59.3533 21.2862 59.13 21.1196 58.85 21.0262C58.5767 20.9262 58.2767 20.8762 57.95 20.8762C57.6433 20.8762 57.4567 20.9662 57.39 21.1462C57.3233 21.3196 57.29 21.5829 57.29 21.9362V24.2762ZM63.9547 27.5663C63.4814 27.5663 63.0547 27.4596 62.6747 27.2462C62.2947 27.0329 61.9914 26.7362 61.7647 26.3562C61.5447 25.9696 61.4347 25.5262 61.4347 25.0262C61.4347 24.4862 61.5447 24.0096 61.7647 23.5962C61.9914 23.1762 62.2947 22.8462 62.6747 22.6062C63.0547 22.3662 63.478 22.2462 63.9447 22.2462C64.418 22.2462 64.8447 22.3562 65.2247 22.5762C65.6047 22.7896 65.9047 23.0896 66.1247 23.4762C66.3514 23.8562 66.4647 24.2962 66.4647 24.7962C66.4647 25.3296 66.3547 25.8062 66.1347 26.2262C65.9147 26.6396 65.6147 26.9662 65.2347 27.2062C64.8614 27.4463 64.4347 27.5663 63.9547 27.5663ZM64.0247 27.0662C64.3447 27.0662 64.5947 26.9696 64.7747 26.7762C64.9614 26.5762 65.0947 26.3262 65.1747 26.0262C65.2547 25.7196 65.2947 25.4029 65.2947 25.0762C65.2947 24.7896 65.268 24.5096 65.2147 24.2362C65.168 23.9562 65.0914 23.7029 64.9847 23.4762C64.878 23.2496 64.738 23.0696 64.5647 22.9362C64.3914 22.7962 64.1814 22.7296 63.9347 22.7362C63.6147 22.7362 63.3547 22.8329 63.1547 23.0262C62.9614 23.2196 62.8214 23.4696 62.7347 23.7762C62.648 24.0762 62.6047 24.3962 62.6047 24.7362C62.6047 25.1296 62.6547 25.5029 62.7547 25.8562C62.8547 26.2096 63.008 26.4996 63.2147 26.7262C63.428 26.9529 63.698 27.0662 64.0247 27.0662ZM69.3457 27.5663C68.939 27.5663 68.5757 27.4629 68.2557 27.2562C67.9424 27.0496 67.6924 26.7596 67.5057 26.3862C67.3257 26.0062 67.2357 25.5596 67.2357 25.0462C67.2357 24.4996 67.3424 24.0162 67.5557 23.5962C67.7757 23.1762 68.0757 22.8462 68.4557 22.6062C68.8357 22.3662 69.2757 22.2462 69.7757 22.2462C69.9824 22.2462 70.179 22.2729 70.3657 22.3262C70.559 22.3729 70.719 22.4296 70.8457 22.4962V21.3562C70.8457 21.2562 70.8457 21.1462 70.8457 21.0262C70.8524 20.9062 70.8657 20.7762 70.8857 20.6362C70.7657 20.6429 70.6424 20.6496 70.5157 20.6562C70.389 20.6629 70.2757 20.6662 70.1757 20.6662V20.1362C70.6224 20.1362 70.939 20.1062 71.1257 20.0462C71.3124 19.9862 71.4424 19.9229 71.5157 19.8562H71.8857V26.1662C71.8857 26.2662 71.8824 26.3796 71.8757 26.5062C71.869 26.6329 71.859 26.7662 71.8457 26.9062C71.9657 26.8996 72.0857 26.8929 72.2057 26.8862C72.3257 26.8796 72.4357 26.8762 72.5357 26.8762V27.4062H70.9457C70.9324 27.3129 70.919 27.2262 70.9057 27.1462C70.899 27.0662 70.8924 26.9862 70.8857 26.9062C70.4724 27.3463 69.959 27.5663 69.3457 27.5663ZM69.7557 26.9362C69.9624 26.9362 70.1624 26.8796 70.3557 26.7662C70.5557 26.6529 70.719 26.5096 70.8457 26.3362C70.8457 26.2496 70.8457 26.1596 70.8457 26.0662C70.8457 25.9729 70.8457 25.8729 70.8457 25.7662V23.0462C70.579 22.8529 70.2557 22.7562 69.8757 22.7562C69.549 22.7562 69.2757 22.8529 69.0557 23.0462C68.8357 23.2329 68.669 23.4929 68.5557 23.8262C68.449 24.1529 68.399 24.5229 68.4057 24.9362C68.419 25.3029 68.4757 25.6396 68.5757 25.9462C68.6757 26.2462 68.8224 26.4862 69.0157 26.6662C69.2157 26.8462 69.4624 26.9362 69.7557 26.9362ZM75.6525 27.5663C75.2058 27.5663 74.7958 27.4663 74.4225 27.2662C74.0492 27.0596 73.7492 26.7662 73.5225 26.3862C73.3025 26.0062 73.1925 25.5462 73.1925 25.0062C73.1925 24.6462 73.2525 24.3029 73.3725 23.9762C73.4992 23.6429 73.6792 23.3462 73.9125 23.0862C74.1458 22.8262 74.4192 22.6229 74.7325 22.4762C75.0525 22.3229 75.4058 22.2462 75.7925 22.2462C76.1858 22.2462 76.5192 22.3062 76.7925 22.4262C77.0725 22.5462 77.2892 22.7029 77.4425 22.8962C77.5958 23.0896 77.6725 23.2996 77.6725 23.5262C77.6725 23.6862 77.6258 23.8262 77.5325 23.9462C77.4392 24.0662 77.3058 24.1262 77.1325 24.1262C76.9325 24.1329 76.7925 24.0762 76.7125 23.9562C76.6392 23.8296 76.6025 23.7129 76.6025 23.6062C76.6025 23.5462 76.6125 23.4796 76.6325 23.4062C76.6525 23.3329 76.6892 23.2629 76.7425 23.1962C76.6892 23.0562 76.6025 22.9529 76.4825 22.8862C76.3625 22.8196 76.2392 22.7762 76.1125 22.7562C75.9858 22.7362 75.8792 22.7262 75.7925 22.7262C75.3858 22.7329 75.0425 22.9096 74.7625 23.2562C74.4892 23.5962 74.3525 24.0896 74.3525 24.7362C74.3525 25.1496 74.4125 25.5196 74.5325 25.8462C74.6592 26.1729 74.8392 26.4329 75.0725 26.6262C75.3125 26.8196 75.6025 26.9196 75.9425 26.9262C76.2425 26.9262 76.5325 26.8496 76.8125 26.6962C77.0925 26.5362 77.3192 26.3362 77.4925 26.0962L77.8125 26.3762C77.5192 26.8162 77.1725 27.1262 76.7725 27.3062C76.3792 27.4796 76.0058 27.5663 75.6525 27.5663ZM81.4464 27.4062C81.4331 27.2996 81.4231 27.2062 81.4164 27.1262C81.4097 27.0462 81.3997 26.9629 81.3864 26.8762C80.9264 27.3362 80.4131 27.5663 79.8464 27.5663C79.3664 27.5663 79.0031 27.4496 78.7564 27.2162C78.5164 26.9762 78.3964 26.6796 78.3964 26.3262C78.3964 26.0196 78.4864 25.7529 78.6664 25.5262C78.8464 25.2996 79.0831 25.1162 79.3764 24.9762C79.6697 24.8296 79.9897 24.7229 80.3364 24.6562C80.6831 24.5829 81.0231 24.5462 81.3564 24.5462V23.9562C81.3564 23.7429 81.3364 23.5462 81.2964 23.3662C81.2564 23.1796 81.1731 23.0296 81.0464 22.9162C80.9197 22.7962 80.7297 22.7362 80.4764 22.7362C80.3031 22.7296 80.1297 22.7629 79.9564 22.8362C79.7831 22.9029 79.6497 23.0162 79.5564 23.1762C79.6097 23.2296 79.6431 23.2929 79.6564 23.3662C79.6764 23.4329 79.6864 23.4962 79.6864 23.5562C79.6864 23.6496 79.6464 23.7562 79.5664 23.8762C79.4864 23.9896 79.3497 24.0429 79.1564 24.0362C78.9964 24.0362 78.8731 23.9829 78.7864 23.8762C78.7064 23.7629 78.6664 23.6329 78.6664 23.4862C78.6664 23.2462 78.7531 23.0329 78.9264 22.8462C79.1064 22.6596 79.3464 22.5129 79.6464 22.4062C79.9531 22.2996 80.2997 22.2462 80.6864 22.2462C81.2597 22.2462 81.6864 22.3962 81.9664 22.6962C82.2531 22.9962 82.3964 23.4696 82.3964 24.1162C82.3964 24.4829 82.3931 24.8262 82.3864 25.1462C82.3864 25.4596 82.3864 25.7996 82.3864 26.1662C82.3864 26.2662 82.3831 26.3796 82.3764 26.5062C82.3697 26.6329 82.3597 26.7662 82.3464 26.9062C82.4597 26.8996 82.5764 26.8929 82.6964 26.8862C82.8164 26.8796 82.9297 26.8762 83.0364 26.8762V27.4062H81.4464ZM81.3564 25.0062C81.0697 25.0196 80.7797 25.0696 80.4864 25.1562C80.1997 25.2362 79.9597 25.3629 79.7664 25.5362C79.5797 25.7029 79.4897 25.9229 79.4964 26.1962C79.5097 26.4229 79.5864 26.5896 79.7264 26.6962C79.8664 26.8029 80.0264 26.8562 80.2064 26.8562C80.4397 26.8562 80.6464 26.8129 80.8264 26.7262C81.0064 26.6329 81.1831 26.5062 81.3564 26.3462C81.3497 26.2729 81.3464 26.1996 81.3464 26.1262C81.3464 26.0462 81.3464 25.9629 81.3464 25.8762C81.3464 25.8162 81.3464 25.7062 81.3464 25.5462C81.3531 25.3862 81.3564 25.2062 81.3564 25.0062ZM85.812 27.5663C85.492 27.5663 85.1986 27.5229 84.932 27.4363C84.672 27.3562 84.462 27.2596 84.302 27.1462L84.332 27.4763H83.802L83.752 25.7562H84.172C84.1853 26.0096 84.262 26.2362 84.402 26.4362C84.542 26.6296 84.722 26.7829 84.942 26.8962C85.1686 27.0096 85.412 27.0662 85.672 27.0662C85.8253 27.0662 85.9753 27.0429 86.122 26.9962C86.2686 26.9429 86.392 26.8662 86.492 26.7662C86.592 26.6596 86.642 26.5296 86.642 26.3762C86.6353 26.1229 86.5186 25.9329 86.292 25.8062C86.072 25.6729 85.7953 25.5396 85.462 25.4062C85.1953 25.3062 84.9286 25.1929 84.662 25.0662C84.3953 24.9396 84.172 24.7762 83.992 24.5762C83.8186 24.3696 83.732 24.0929 83.732 23.7462C83.732 23.5396 83.7853 23.3196 83.892 23.0862C83.9986 22.8529 84.182 22.6562 84.442 22.4962C84.702 22.3296 85.052 22.2462 85.492 22.2462C85.672 22.2462 85.8753 22.2762 86.102 22.3362C86.3286 22.3962 86.5353 22.4996 86.722 22.6462L86.712 22.2962H87.242V24.0562H86.812C86.792 23.8229 86.7286 23.6062 86.622 23.4062C86.522 23.2062 86.3786 23.0429 86.192 22.9162C86.0053 22.7896 85.7786 22.7262 85.512 22.7262C85.2453 22.7262 85.032 22.7929 84.872 22.9262C84.712 23.0529 84.632 23.2129 84.632 23.4062C84.632 23.5996 84.692 23.7562 84.812 23.8762C84.9386 23.9962 85.102 24.0996 85.302 24.1862C85.502 24.2729 85.7186 24.3596 85.952 24.4462C86.232 24.5596 86.4953 24.6829 86.742 24.8162C86.9886 24.9496 87.1886 25.1162 87.342 25.3162C87.4953 25.5162 87.572 25.7696 87.572 26.0762C87.572 26.4162 87.4853 26.6962 87.312 26.9162C87.1453 27.1362 86.9253 27.2996 86.652 27.4062C86.3853 27.5129 86.1053 27.5663 85.812 27.5663ZM90.2892 27.5663C90.1226 27.5663 89.9559 27.5429 89.7892 27.4963C89.6226 27.4563 89.4692 27.3729 89.3292 27.2462C89.1892 27.1129 89.0759 26.9229 88.9892 26.6762C88.9026 26.4296 88.8626 26.1029 88.8692 25.6962L88.8892 22.9662H88.1492V22.4062C88.3292 22.3996 88.5092 22.3329 88.6892 22.2062C88.8759 22.0796 89.0392 21.9096 89.1792 21.6962C89.3259 21.4829 89.4259 21.2529 89.4792 21.0062H89.9492V22.4062H91.4892V22.9262L89.9492 22.9462L89.9292 25.6162C89.9292 25.9962 89.9792 26.3029 90.0792 26.5362C90.1859 26.7629 90.3726 26.8762 90.6392 26.8762C90.7926 26.8762 90.9492 26.8296 91.1092 26.7362C91.2759 26.6429 91.4326 26.4896 91.5792 26.2762L91.9192 26.5762C91.7059 26.8896 91.4926 27.1162 91.2792 27.2562C91.0659 27.3896 90.8726 27.4729 90.6992 27.5063C90.5259 27.5463 90.3892 27.5663 90.2892 27.5663Z" fill="#131516"/>
</svg>
